<!DOCTYPE svg PUBLIC "-//W3C//DTD SVG 1.1//EN" "http://www.w3.org/Graphics/SVG/1.1/DTD/svg11.dtd">
<!-- Uploaded to: SVG Repo, www.svgrepo.com, Transformed by: SVG Repo Mixer Tools -->
<svg width="800px" height="800px" viewBox="0 0 21 21" xmlns="http://www.w3.org/2000/svg" fill="#000000">
<g id="SVGRepo_bgCarrier" stroke-width="0"/>
<g id="SVGRepo_tracerCarrier" stroke-linecap="round" stroke-linejoin="round"/>
<g id="SVGRepo_iconCarrier"> <g fill="none" fill-rule="evenodd" stroke="#e98b11" stroke-linecap="round" stroke-linejoin="round" transform="translate(2 4)"> <path d="m4.5 0c.55228475 0 1 .44771525 1 1v2c0 .55228475-.44771525 1-1 1s-1-.44771525-1-1v-2c0-.55228475.44771525-1 1-1z"/> <path d="m16.5 2h-11"/> <path d="m3.5 2h-3"/> <path d="m4.5 10c.55228475 0 1 .4477153 1 1v2c0 .5522847-.44771525 1-1 1s-1-.4477153-1-1v-2c0-.5522847.44771525-1 1-1z"/> <path d="m16.5 12h-11"/> <path d="m3.5 12h-3"/> <path d="m12.5 5c.5522847 0 1 .44771525 1 1v2c0 .55228475-.4477153 1-1 1s-1-.44771525-1-1v-2c0-.55228475.4477153-1 1-1z"/> <path d="m11.5 7h-11"/> <path d="m16.5 7h-3"/> </g> </g>
</svg>