<svg xmlns="http://www.w3.org/2000/svg" xmlns:xlink="http://www.w3.org/1999/xlink" width="50" zoomAndPan="magnify" viewBox="0 0 37.5 37.499999" height="50" preserveAspectRatio="xMidYMid meet" version="1.0"><defs><clipPath id="d9195131bd"><path d="M 5.699219 6.132812 L 31.605469 6.132812 L 31.605469 30.554688 L 5.699219 30.554688 Z M 5.699219 6.132812 " clip-rule="nonzero"/></clipPath></defs><g clip-path="url(#d9195131bd)"><path fill="#f39200" d="M 29.589844 30.015625 L 28.3125 30.015625 L 28.3125 26.605469 C 28.78125 26.605469 29.164062 26.988281 29.164062 27.457031 C 29.164062 27.546875 29.144531 27.644531 29.109375 27.746094 C 29.058594 27.878906 29.082031 28.03125 29.167969 28.148438 C 29.253906 28.261719 29.394531 28.324219 29.535156 28.316406 C 29.558594 28.316406 29.582031 28.3125 29.601562 28.308594 C 30.066406 28.316406 30.445312 28.695312 30.445312 29.164062 C 30.445312 29.632812 30.0625 30.015625 29.589844 30.015625 Z M 25.753906 30.015625 L 25.753906 20.207031 C 25.753906 19.96875 25.5625 19.78125 25.324219 19.78125 L 19.355469 19.78125 C 19.121094 19.78125 18.929688 19.96875 18.929688 20.207031 L 18.929688 30.015625 L 9.546875 30.015625 L 9.546875 17.863281 L 18.5 11.351562 L 27.457031 17.863281 L 27.457031 30.015625 Z M 24.898438 30.015625 L 19.78125 30.015625 L 19.78125 20.632812 L 24.898438 20.632812 Z M 6.558594 29.164062 C 6.558594 28.695312 6.9375 28.316406 7.398438 28.308594 L 7.402344 28.308594 C 7.421875 28.3125 7.445312 28.316406 7.46875 28.316406 C 7.609375 28.328125 7.75 28.261719 7.835938 28.148438 C 7.921875 28.03125 7.945312 27.878906 7.894531 27.746094 C 7.859375 27.644531 7.839844 27.546875 7.839844 27.457031 C 7.839844 26.988281 8.222656 26.605469 8.691406 26.605469 L 8.691406 30.015625 L 7.414062 30.015625 C 6.941406 30.015625 6.558594 29.632812 6.558594 29.164062 Z M 18.5 8.792969 L 28.875 16.371094 L 27.878906 17.117188 L 18.753906 10.476562 C 18.679688 10.425781 18.589844 10.398438 18.5 10.398438 C 18.414062 10.398438 18.324219 10.425781 18.25 10.476562 L 9.121094 17.117188 L 8.128906 16.371094 Z M 22.765625 10.824219 L 22.765625 8.691406 L 25.324219 8.691406 L 25.324219 12.722656 L 22.726562 10.824219 Z M 22.339844 6.984375 L 25.753906 6.984375 L 25.753906 7.839844 L 22.339844 7.839844 Z M 30.015625 27.511719 C 30.015625 27.492188 30.015625 27.472656 30.015625 27.457031 C 30.015625 26.515625 29.25 25.75 28.3125 25.75 L 28.3125 17.859375 L 29.847656 16.707031 C 29.953125 16.628906 30.019531 16.5 30.015625 16.363281 C 30.015625 16.230469 29.953125 16.101562 29.84375 16.023438 L 26.179688 13.347656 L 26.179688 8.691406 C 26.414062 8.691406 26.605469 8.5 26.605469 8.265625 L 26.605469 6.558594 C 26.605469 6.324219 26.414062 6.132812 26.179688 6.132812 L 21.914062 6.132812 C 21.679688 6.132812 21.488281 6.324219 21.488281 6.558594 L 21.488281 8.265625 C 21.488281 8.5 21.679688 8.691406 21.914062 8.691406 L 21.914062 10.230469 L 18.753906 7.921875 C 18.605469 7.808594 18.398438 7.808594 18.25 7.921875 L 7.160156 16.023438 C 7.050781 16.101562 6.988281 16.230469 6.988281 16.363281 C 6.984375 16.5 7.050781 16.628906 7.15625 16.707031 L 8.691406 17.859375 L 8.691406 25.75 C 7.75 25.75 6.988281 26.515625 6.988281 27.457031 C 6.988281 27.472656 6.988281 27.492188 6.988281 27.511719 C 6.253906 27.699219 5.707031 28.367188 5.707031 29.164062 C 5.707031 30.101562 6.472656 30.867188 7.414062 30.867188 L 29.589844 30.867188 C 30.53125 30.867188 31.296875 30.101562 31.296875 29.164062 C 31.296875 28.367188 30.75 27.699219 30.015625 27.511719 " fill-opacity="1" fill-rule="nonzero"/></g><path fill="#f39200" d="M 14.664062 25.75 L 14.664062 23.617188 L 16.371094 23.617188 L 16.371094 25.75 Z M 12.105469 23.617188 L 13.808594 23.617188 L 13.808594 25.75 L 12.105469 25.75 Z M 13.808594 20.632812 L 13.808594 22.765625 L 12.105469 22.765625 L 12.105469 20.632812 Z M 16.371094 22.765625 L 14.664062 22.765625 L 14.664062 20.632812 L 16.371094 20.632812 Z M 16.796875 19.78125 L 11.679688 19.78125 C 11.441406 19.78125 11.25 19.96875 11.25 20.207031 L 11.25 26.175781 C 11.25 26.414062 11.441406 26.605469 11.679688 26.605469 L 16.796875 26.605469 C 17.03125 26.605469 17.222656 26.414062 17.222656 26.175781 L 17.222656 20.207031 C 17.222656 19.96875 17.03125 19.78125 16.796875 19.78125 " fill-opacity="1" fill-rule="nonzero"/><path fill="#f39200" d="M 21.0625 25.324219 C 21.296875 25.324219 21.488281 25.132812 21.488281 24.898438 C 21.488281 24.660156 21.296875 24.472656 21.0625 24.472656 C 20.824219 24.472656 20.632812 24.660156 20.632812 24.898438 C 20.632812 25.132812 20.824219 25.324219 21.0625 25.324219 " fill-opacity="1" fill-rule="nonzero"/></svg>