<svg xmlns="http://www.w3.org/2000/svg" xmlns:xlink="http://www.w3.org/1999/xlink" width="50" zoomAndPan="magnify" viewBox="0 0 37.5 37.499999" height="50" preserveAspectRatio="xMidYMid meet" version="1.0"><defs><clipPath id="f9281e3ee1"><path d="M 9.667969 7.46875 L 31.664062 7.46875 L 31.664062 26 L 9.667969 26 Z M 9.667969 7.46875 " clip-rule="nonzero"/></clipPath><clipPath id="01ef9b4e8c"><path d="M 9.667969 12.003906 L 31.664062 12.003906 L 31.664062 13.121094 L 9.667969 13.121094 Z M 9.667969 12.003906 " clip-rule="nonzero"/></clipPath><clipPath id="f1b64e277f"><path d="M 13 6.144531 L 15 6.144531 L 15 10 L 13 10 Z M 13 6.144531 " clip-rule="nonzero"/></clipPath><clipPath id="56bcd14da7"><path d="M 17 6.144531 L 19 6.144531 L 19 10 L 17 10 Z M 17 6.144531 " clip-rule="nonzero"/></clipPath><clipPath id="d09a5c9fec"><path d="M 22 6.144531 L 24 6.144531 L 24 10 L 22 10 Z M 22 6.144531 " clip-rule="nonzero"/></clipPath><clipPath id="29892fff3e"><path d="M 27 6.144531 L 29 6.144531 L 29 10 L 27 10 Z M 27 6.144531 " clip-rule="nonzero"/></clipPath><clipPath id="501a20c3fd"><path d="M 5.34375 14.65625 L 21.53125 14.65625 L 21.53125 30.566406 L 5.34375 30.566406 Z M 5.34375 14.65625 " clip-rule="nonzero"/></clipPath><clipPath id="bd93b3a164"><path d="M 9.4375 21.886719 L 18.316406 21.886719 L 18.316406 29.289062 L 9.4375 29.289062 Z M 9.4375 21.886719 " clip-rule="nonzero"/></clipPath></defs><g clip-path="url(#f9281e3ee1)"><path fill="#f39200" d="M 10.765625 14.597656 L 10.765625 9.53125 C 10.765625 9.273438 10.871094 9.039062 11.042969 8.871094 C 11.210938 8.699219 11.445312 8.59375 11.703125 8.59375 L 29.65625 8.59375 C 29.914062 8.59375 30.148438 8.699219 30.316406 8.871094 C 30.488281 9.039062 30.59375 9.273438 30.59375 9.53125 L 30.59375 23.960938 C 30.59375 24.21875 30.488281 24.453125 30.316406 24.621094 C 30.148438 24.792969 29.914062 24.898438 29.65625 24.898438 L 21.757812 24.898438 C 21.664062 25.261719 21.550781 25.621094 21.410156 25.96875 L 29.65625 25.96875 C 30.207031 25.96875 30.710938 25.742188 31.074219 25.378906 C 31.4375 25.015625 31.664062 24.511719 31.664062 23.960938 L 31.664062 9.53125 C 31.664062 8.976562 31.4375 8.476562 31.074219 8.113281 C 30.710938 7.746094 30.207031 7.523438 29.65625 7.523438 L 11.703125 7.523438 C 11.152344 7.523438 10.648438 7.746094 10.285156 8.113281 C 9.921875 8.476562 9.695312 8.976562 9.695312 9.53125 L 9.695312 15.023438 C 10.042969 14.859375 10.398438 14.714844 10.765625 14.597656 " fill-opacity="1" fill-rule="nonzero"/></g><g clip-path="url(#01ef9b4e8c)"><path fill="#f39200" d="M 10.230469 12.039062 C 9.933594 12.039062 9.695312 12.277344 9.695312 12.574219 C 9.695312 12.871094 9.933594 13.109375 10.230469 13.109375 L 31.128906 13.109375 C 31.425781 13.109375 31.664062 12.871094 31.664062 12.574219 C 31.664062 12.277344 31.425781 12.039062 31.128906 12.039062 L 10.230469 12.039062 " fill-opacity="1" fill-rule="nonzero"/></g><g clip-path="url(#f1b64e277f)"><path fill="#f39200" d="M 14.25 6.679688 C 14.25 6.382812 14.007812 6.144531 13.714844 6.144531 C 13.417969 6.144531 13.179688 6.382812 13.179688 6.679688 L 13.179688 9.359375 C 13.179688 9.652344 13.417969 9.894531 13.714844 9.894531 C 14.007812 9.894531 14.25 9.652344 14.25 9.359375 L 14.25 6.679688 " fill-opacity="1" fill-rule="nonzero"/></g><g clip-path="url(#56bcd14da7)"><path fill="#f39200" d="M 18.894531 6.679688 C 18.894531 6.382812 18.652344 6.144531 18.359375 6.144531 C 18.0625 6.144531 17.820312 6.382812 17.820312 6.679688 L 17.820312 9.359375 C 17.820312 9.652344 18.0625 9.894531 18.359375 9.894531 C 18.652344 9.894531 18.894531 9.652344 18.894531 9.359375 L 18.894531 6.679688 " fill-opacity="1" fill-rule="nonzero"/></g><g clip-path="url(#d09a5c9fec)"><path fill="#f39200" d="M 23.539062 6.679688 C 23.539062 6.382812 23.296875 6.144531 23 6.144531 C 22.707031 6.144531 22.464844 6.382812 22.464844 6.679688 L 22.464844 9.359375 C 22.464844 9.652344 22.707031 9.894531 23 9.894531 C 23.296875 9.894531 23.539062 9.652344 23.539062 9.359375 L 23.539062 6.679688 " fill-opacity="1" fill-rule="nonzero"/></g><g clip-path="url(#29892fff3e)"><path fill="#f39200" d="M 28.183594 6.679688 C 28.183594 6.382812 27.941406 6.144531 27.644531 6.144531 C 27.351562 6.144531 27.109375 6.382812 27.109375 6.679688 L 27.109375 9.359375 C 27.109375 9.652344 27.351562 9.894531 27.644531 9.894531 C 27.941406 9.894531 28.183594 9.652344 28.183594 9.359375 L 28.183594 6.679688 " fill-opacity="1" fill-rule="nonzero"/></g><g clip-path="url(#501a20c3fd)"><path fill="#f39200" d="M 13.414062 14.71875 C 15.640625 14.71875 17.660156 15.621094 19.121094 17.082031 C 20.582031 18.539062 21.484375 20.558594 21.484375 22.785156 C 21.484375 25.015625 20.582031 27.03125 19.121094 28.492188 C 17.660156 29.953125 15.640625 30.855469 13.414062 30.855469 L 13.414062 29.785156 C 15.347656 29.785156 17.097656 29 18.363281 27.734375 C 19.628906 26.46875 20.410156 24.71875 20.410156 22.785156 C 20.410156 20.855469 19.628906 19.105469 18.363281 17.839844 C 17.097656 16.570312 15.347656 15.789062 13.414062 15.789062 Z M 13.414062 14.71875 L 13.414062 15.789062 C 11.480469 15.789062 9.730469 16.570312 8.464844 17.839844 C 7.199219 19.105469 6.414062 20.855469 6.414062 22.785156 C 6.414062 24.71875 7.199219 26.46875 8.464844 27.734375 C 9.730469 29 11.480469 29.785156 13.414062 29.785156 L 13.414062 30.855469 C 11.183594 30.855469 9.167969 29.953125 7.707031 28.492188 C 6.246094 27.03125 5.34375 25.015625 5.34375 22.785156 C 5.34375 20.558594 6.246094 18.539062 7.707031 17.082031 C 9.167969 15.621094 11.183594 14.71875 13.414062 14.71875 " fill-opacity="1" fill-rule="nonzero"/></g><path fill="#f39200" d="M 27.8125 14.171875 L 28.886719 14.171875 C 29.035156 14.171875 29.152344 14.292969 29.152344 14.441406 L 29.152344 16.644531 C 29.152344 16.792969 29.035156 16.914062 28.886719 16.914062 L 27.8125 16.914062 L 27.8125 16.375 L 28.617188 16.375 L 28.617188 14.710938 L 27.8125 14.710938 Z M 26.742188 14.171875 L 27.8125 14.171875 L 27.8125 14.710938 L 27.011719 14.710938 L 27.011719 16.375 L 27.8125 16.375 L 27.8125 16.914062 L 26.742188 16.914062 C 26.59375 16.914062 26.472656 16.792969 26.472656 16.644531 L 26.472656 14.441406 C 26.472656 14.292969 26.59375 14.171875 26.742188 14.171875 " fill-opacity="1" fill-rule="nonzero"/><path fill="#f39200" d="M 23.625 14.171875 L 24.699219 14.171875 C 24.847656 14.171875 24.964844 14.292969 24.964844 14.441406 L 24.964844 16.644531 C 24.964844 16.792969 24.847656 16.914062 24.699219 16.914062 L 23.625 16.914062 L 23.625 16.375 L 24.429688 16.375 L 24.429688 14.710938 L 23.625 14.710938 Z M 22.554688 14.171875 L 23.625 14.171875 L 23.625 14.710938 L 22.824219 14.710938 L 22.824219 16.375 L 23.625 16.375 L 23.625 16.914062 L 22.554688 16.914062 C 22.40625 16.914062 22.289062 16.792969 22.289062 16.644531 L 22.289062 14.441406 C 22.289062 14.292969 22.40625 14.171875 22.554688 14.171875 " fill-opacity="1" fill-rule="nonzero"/><path fill="#f39200" d="M 27.8125 17.597656 L 28.886719 17.597656 C 29.035156 17.597656 29.152344 17.71875 29.152344 17.867188 L 29.152344 20.070312 C 29.152344 20.21875 29.035156 20.335938 28.886719 20.335938 L 27.8125 20.335938 L 27.8125 19.800781 L 28.617188 19.800781 L 28.617188 18.132812 L 27.8125 18.132812 Z M 26.742188 17.597656 L 27.8125 17.597656 L 27.8125 18.132812 L 27.011719 18.132812 L 27.011719 19.800781 L 27.8125 19.800781 L 27.8125 20.335938 L 26.742188 20.335938 C 26.59375 20.335938 26.472656 20.21875 26.472656 20.070312 L 26.472656 17.867188 C 26.472656 17.71875 26.59375 17.597656 26.742188 17.597656 " fill-opacity="1" fill-rule="nonzero"/><path fill="#f39200" d="M 23.625 17.597656 L 24.699219 17.597656 C 24.847656 17.597656 24.964844 17.71875 24.964844 17.867188 L 24.964844 20.070312 C 24.964844 20.21875 24.847656 20.335938 24.699219 20.335938 L 23.625 20.335938 L 23.625 19.800781 L 24.429688 19.800781 L 24.429688 18.132812 L 23.625 18.132812 Z M 22.554688 17.597656 L 23.625 17.597656 L 23.625 18.132812 L 22.824219 18.132812 L 22.824219 19.800781 L 23.625 19.800781 L 23.625 20.335938 L 22.554688 20.335938 C 22.40625 20.335938 22.289062 20.21875 22.289062 20.070312 L 22.289062 17.867188 C 22.289062 17.71875 22.40625 17.597656 22.554688 17.597656 " fill-opacity="1" fill-rule="nonzero"/><path fill="#f39200" d="M 27.8125 21.023438 L 28.886719 21.023438 C 29.035156 21.023438 29.152344 21.144531 29.152344 21.289062 L 29.152344 23.492188 C 29.152344 23.640625 29.035156 23.761719 28.886719 23.761719 L 27.8125 23.761719 L 27.8125 23.226562 L 28.617188 23.226562 L 28.617188 21.558594 L 27.8125 21.558594 Z M 26.742188 21.023438 L 27.8125 21.023438 L 27.8125 21.558594 L 27.011719 21.558594 L 27.011719 23.226562 L 27.8125 23.226562 L 27.8125 23.761719 L 26.742188 23.761719 C 26.59375 23.761719 26.472656 23.640625 26.472656 23.492188 L 26.472656 21.289062 C 26.472656 21.144531 26.59375 21.023438 26.742188 21.023438 " fill-opacity="1" fill-rule="nonzero"/><path fill="#f39200" d="M 23.625 21.023438 L 24.699219 21.023438 C 24.847656 21.023438 24.964844 21.144531 24.964844 21.289062 L 24.964844 23.492188 C 24.964844 23.640625 24.847656 23.761719 24.699219 23.761719 L 23.625 23.761719 L 23.625 23.226562 L 24.429688 23.226562 L 24.429688 21.558594 L 23.625 21.558594 Z M 22.554688 21.023438 L 23.625 21.023438 L 23.625 21.558594 L 22.824219 21.558594 L 22.824219 23.226562 L 23.625 23.226562 L 23.625 23.761719 L 22.554688 23.761719 C 22.40625 23.761719 22.289062 23.640625 22.289062 23.492188 L 22.289062 21.289062 C 22.289062 21.144531 22.40625 21.023438 22.554688 21.023438 " fill-opacity="1" fill-rule="nonzero"/><path fill="#f39200" d="M 13.980469 17.394531 C 13.980469 17.101562 13.742188 16.859375 13.445312 16.859375 C 13.148438 16.859375 12.910156 17.101562 12.910156 17.394531 L 12.910156 22.753906 C 12.910156 23.050781 13.148438 23.289062 13.445312 23.289062 C 13.742188 23.289062 13.980469 23.050781 13.980469 22.753906 L 13.980469 17.394531 " fill-opacity="1" fill-rule="nonzero"/><path fill="#f39200" d="M 13.78125 22.339844 C 13.554688 22.152344 13.21875 22.1875 13.03125 22.417969 C 12.84375 22.648438 12.878906 22.984375 13.109375 23.167969 L 16.023438 25.53125 C 16.25 25.71875 16.585938 25.683594 16.773438 25.453125 C 16.960938 25.226562 16.925781 24.886719 16.695312 24.703125 L 13.78125 22.339844 " fill-opacity="1" fill-rule="nonzero"/><path fill="#f39200" d="M 12 24.910156 L 13.234375 24.910156 C 13.273438 24.910156 13.304688 24.875 13.304688 24.835938 L 13.304688 23.605469 C 13.304688 23.566406 13.273438 23.535156 13.234375 23.535156 L 12 23.535156 C 11.960938 23.535156 11.929688 23.566406 11.929688 23.605469 L 11.929688 24.835938 C 11.929688 24.875 11.960938 24.910156 12 24.910156 Z M 12.074219 23.675781 L 13.160156 23.675781 L 13.160156 24.765625 L 12.074219 24.765625 Z M 12.074219 23.675781 " fill-opacity="1" fill-rule="nonzero"/><path fill="#f39200" d="M 12.984375 23.78125 L 12.25 23.78125 C 12.210938 23.78125 12.175781 23.8125 12.175781 23.855469 L 12.175781 24.589844 C 12.175781 24.628906 12.210938 24.660156 12.25 24.660156 L 12.984375 24.660156 C 13.023438 24.660156 13.054688 24.628906 13.054688 24.589844 L 13.054688 23.855469 C 13.054688 23.8125 13.023438 23.78125 12.984375 23.78125 Z M 12.914062 24.515625 L 12.320312 24.515625 L 12.320312 23.925781 L 12.914062 23.925781 Z M 12.914062 24.515625 " fill-opacity="1" fill-rule="nonzero"/><g clip-path="url(#bd93b3a164)"><path fill="#f39200" d="M 18.214844 28.617188 L 18.179688 28.617188 L 18.179688 25.402344 C 18.289062 25.382812 18.382812 25.316406 18.4375 25.214844 C 18.5 25.089844 18.492188 24.949219 18.414062 24.832031 L 17.242188 23.105469 C 17.226562 23.085938 17.207031 23.074219 17.179688 23.074219 L 13.785156 23.074219 L 12.953125 22.046875 C 12.871094 21.945312 12.75 21.886719 12.617188 21.886719 C 12.484375 21.886719 12.363281 21.945312 12.277344 22.046875 L 9.640625 25.292969 C 9.574219 25.375 9.558594 25.488281 9.605469 25.582031 C 9.652344 25.679688 9.746094 25.738281 9.851562 25.738281 C 9.882812 25.738281 9.910156 25.734375 9.9375 25.722656 L 9.9375 28.617188 L 9.699219 28.617188 C 9.554688 28.617188 9.4375 28.734375 9.4375 28.882812 C 9.4375 29.03125 9.554688 29.148438 9.699219 29.148438 L 18.214844 29.148438 C 18.359375 29.148438 18.480469 29.03125 18.480469 28.878906 C 18.480469 28.734375 18.363281 28.617188 18.214844 28.617188 Z M 15.296875 28.617188 L 15.296875 25.722656 C 15.324219 25.734375 15.351562 25.738281 15.382812 25.738281 C 15.488281 25.738281 15.582031 25.679688 15.628906 25.582031 C 15.652344 25.527344 15.660156 25.46875 15.648438 25.410156 L 18.039062 25.410156 L 18.039062 28.617188 Z M 17.144531 23.214844 L 18.296875 24.914062 C 18.34375 24.984375 18.347656 25.070312 18.308594 25.148438 C 18.269531 25.222656 18.195312 25.265625 18.109375 25.265625 L 15.605469 25.265625 C 15.59375 25.265625 15.585938 25.269531 15.574219 25.273438 L 13.902344 23.214844 Z M 9.734375 25.519531 C 9.714844 25.476562 9.71875 25.425781 9.753906 25.382812 L 12.390625 22.140625 C 12.445312 22.070312 12.527344 22.03125 12.617188 22.03125 C 12.703125 22.03125 12.789062 22.070312 12.84375 22.140625 L 15.480469 25.382812 C 15.511719 25.425781 15.519531 25.476562 15.496094 25.523438 C 15.476562 25.566406 15.433594 25.59375 15.382812 25.59375 C 15.34375 25.59375 15.304688 25.578125 15.28125 25.546875 L 12.671875 22.339844 C 12.660156 22.320312 12.636719 22.3125 12.617188 22.3125 C 12.59375 22.3125 12.574219 22.320312 12.5625 22.339844 L 9.953125 25.546875 C 9.929688 25.578125 9.890625 25.59375 9.851562 25.59375 C 9.800781 25.59375 9.757812 25.566406 9.734375 25.519531 Z M 10.078125 25.617188 L 12.617188 22.496094 L 15.152344 25.617188 L 15.152344 28.617188 L 14.972656 28.617188 L 14.972656 26.441406 C 14.972656 26.402344 14.941406 26.371094 14.902344 26.371094 L 13.292969 26.371094 C 13.25 26.371094 13.21875 26.402344 13.21875 26.441406 L 13.21875 28.617188 L 10.078125 28.617188 Z M 14.832031 28.617188 L 13.363281 28.617188 L 13.363281 26.511719 L 14.832031 26.511719 Z M 18.214844 29.003906 L 9.699219 29.003906 C 9.632812 29.003906 9.582031 28.949219 9.582031 28.878906 C 9.582031 28.8125 9.632812 28.761719 9.699219 28.761719 L 18.214844 28.761719 C 18.28125 28.761719 18.335938 28.8125 18.335938 28.882812 C 18.335938 28.949219 18.28125 29.003906 18.214844 29.003906 Z M 18.214844 29.003906 " fill-opacity="1" fill-rule="nonzero"/></g><path fill="#f39200" d="M 17.820312 26.28125 L 15.519531 26.28125 C 15.480469 26.28125 15.449219 26.3125 15.449219 26.351562 L 15.449219 27.851562 C 15.449219 27.890625 15.480469 27.925781 15.519531 27.925781 L 17.820312 27.925781 C 17.859375 27.925781 17.890625 27.890625 17.890625 27.851562 L 17.890625 26.351562 C 17.890625 26.3125 17.859375 26.28125 17.820312 26.28125 Z M 17.75 27.492188 L 16.742188 27.492188 L 16.742188 26.421875 L 17.75 26.421875 Z M 16.597656 26.421875 L 16.597656 27.492188 L 15.59375 27.492188 L 15.59375 26.421875 Z M 15.59375 27.78125 L 15.59375 27.636719 L 17.75 27.636719 L 17.75 27.78125 Z M 15.59375 27.78125 " fill-opacity="1" fill-rule="nonzero"/><path fill="#f39200" d="M 12.808594 26.28125 L 10.511719 26.28125 C 10.46875 26.28125 10.4375 26.3125 10.4375 26.351562 L 10.4375 27.851562 C 10.4375 27.890625 10.46875 27.925781 10.511719 27.925781 L 12.808594 27.925781 C 12.847656 27.925781 12.882812 27.890625 12.882812 27.851562 L 12.882812 26.351562 C 12.882812 26.3125 12.847656 26.28125 12.808594 26.28125 Z M 12.738281 27.492188 L 11.730469 27.492188 L 11.730469 26.421875 L 12.738281 26.421875 Z M 11.585938 26.421875 L 11.585938 27.492188 L 10.582031 27.492188 L 10.582031 26.421875 Z M 10.582031 27.78125 L 10.582031 27.636719 L 12.738281 27.636719 L 12.738281 27.78125 Z M 10.582031 27.78125 " fill-opacity="1" fill-rule="nonzero"/><path fill="#f39200" d="M 13.621094 27.835938 C 13.679688 27.835938 13.730469 27.789062 13.730469 27.726562 C 13.730469 27.667969 13.679688 27.621094 13.621094 27.621094 C 13.5625 27.621094 13.511719 27.667969 13.511719 27.726562 C 13.511719 27.789062 13.5625 27.835938 13.621094 27.835938 Z M 13.621094 27.835938 " fill-opacity="1" fill-rule="nonzero"/></svg>