<svg xmlns="http://www.w3.org/2000/svg" xmlns:xlink="http://www.w3.org/1999/xlink" width="50" zoomAndPan="magnify" viewBox="0 0 37.5 37.499999" height="50" preserveAspectRatio="xMidYMid meet" version="1.0"><defs><clipPath id="f087011e1c"><path d="M 5.796875 6.144531 L 30.960938 6.144531 L 30.960938 30.566406 L 5.796875 30.566406 Z M 5.796875 6.144531 " clip-rule="nonzero"/></clipPath></defs><g clip-path="url(#f087011e1c)"><path fill="#f39200" d="M 28.699219 6.144531 L 17.761719 6.144531 C 16.25 6.542969 15.324219 7.460938 15.222656 9.125 C 15.234375 9.445312 15.242188 9.765625 15.253906 10.082031 C 15.253906 10.667969 15.25 11.214844 15.253906 11.761719 C 15.253906 12.605469 15.246094 13.453125 15.25 14.296875 L 8.292969 14.296875 C 7.6875 14.425781 7.160156 14.703125 6.707031 15.128906 C 6.257812 15.558594 5.957031 16.074219 5.796875 16.671875 L 5.796875 23.800781 C 5.839844 24.171875 5.960938 24.511719 6.167969 24.824219 C 6.46875 25.238281 6.855469 25.539062 7.332031 25.722656 C 7.789062 25.945312 8.273438 26.054688 8.78125 26.058594 L 9.578125 26.058594 L 9.578125 28.328125 C 9.597656 29.167969 9.621094 30.011719 9.640625 30.855469 C 10.046875 30.46875 10.398438 30.132812 10.667969 29.867188 C 11.523438 29.03125 11.941406 28.601562 12.457031 28.050781 C 12.894531 27.589844 12.917969 27.5625 13.125 27.347656 C 14.066406 26.363281 14.316406 26.246094 14.441406 26.191406 C 14.699219 26.082031 14.96875 26.035156 15.25 26.042969 C 16.414062 26.089844 17.582031 26.066406 18.75 26.058594 C 19.152344 26.074219 19.542969 26.011719 19.917969 25.863281 C 20.289062 25.71875 20.621094 25.503906 20.902344 25.21875 C 21.1875 24.933594 21.402344 24.605469 21.546875 24.230469 C 21.691406 23.851562 21.753906 23.464844 21.738281 23.0625 C 21.746094 22.015625 21.738281 20.964844 21.738281 19.917969 L 21.738281 18.242188 L 21.75 17.890625 C 22.027344 17.878906 22.292969 17.929688 22.550781 18.039062 C 22.675781 18.089844 22.921875 18.203125 23.867188 19.191406 C 24.074219 19.40625 24.097656 19.433594 24.53125 19.894531 C 25.050781 20.445312 25.46875 20.875 26.324219 21.710938 C 26.59375 21.976562 26.941406 22.316406 27.351562 22.703125 C 27.371094 21.855469 27.394531 21.015625 27.414062 20.171875 L 27.414062 17.902344 L 28.214844 17.902344 C 28.71875 17.898438 29.199219 17.789062 29.65625 17.570312 C 30.132812 17.382812 30.523438 17.085938 30.824219 16.667969 C 31.027344 16.355469 31.152344 16.015625 31.195312 15.640625 L 31.195312 8.519531 C 31.039062 7.917969 30.734375 7.402344 30.285156 6.976562 C 29.835938 6.546875 29.304688 6.269531 28.699219 6.144531 Z M 20.785156 23.0625 C 20.804688 23.339844 20.765625 23.609375 20.667969 23.867188 C 20.574219 24.125 20.425781 24.355469 20.230469 24.550781 C 20.035156 24.746094 19.808594 24.894531 19.546875 24.988281 C 19.289062 25.085938 19.019531 25.125 18.746094 25.105469 C 17.398438 25.117188 16.054688 25.125 14.707031 25.101562 C 14.289062 25.078125 13.941406 25.222656 13.664062 25.535156 C 13.167969 26.042969 12.617188 26.503906 12.160156 27.050781 C 11.648438 27.667969 11.082031 28.234375 10.464844 28.75 C 10.476562 28.480469 10.515625 27.214844 10.53125 25.828125 C 10.554688 25.609375 10.496094 25.414062 10.351562 25.25 C 10.195312 25.128906 10.023438 25.082031 9.828125 25.105469 C 9.472656 25.121094 9.113281 25.113281 8.757812 25.105469 C 8.488281 25.117188 8.226562 25.074219 7.972656 24.972656 C 7.722656 24.875 7.5 24.730469 7.308594 24.535156 C 7.117188 24.34375 6.972656 24.117188 6.875 23.863281 C 6.78125 23.609375 6.738281 23.347656 6.753906 23.078125 C 6.742188 21.160156 6.742188 19.242188 6.753906 17.320312 C 6.738281 17.050781 6.777344 16.785156 6.871094 16.53125 C 6.96875 16.277344 7.109375 16.050781 7.300781 15.855469 C 7.488281 15.660156 7.710938 15.511719 7.960938 15.414062 C 8.214844 15.3125 8.476562 15.265625 8.75 15.273438 C 10.925781 15.261719 13.097656 15.261719 15.273438 15.261719 C 15.308594 15.753906 15.460938 16.203125 15.730469 16.613281 C 16 17.023438 16.351562 17.34375 16.789062 17.570312 C 17.246094 17.796875 17.726562 17.90625 18.238281 17.902344 C 18.625 17.90625 19.011719 17.910156 19.394531 17.910156 C 19.859375 17.917969 20.324219 17.917969 20.785156 17.910156 C 20.796875 19.625 20.796875 21.34375 20.785156 23.0625 Z M 30.238281 14.921875 C 30.253906 15.195312 30.210938 15.457031 30.117188 15.710938 C 30.019531 15.964844 29.875 16.1875 29.683594 16.378906 C 29.492188 16.574219 29.269531 16.71875 29.015625 16.820312 C 28.765625 16.917969 28.503906 16.964844 28.230469 16.953125 C 27.875 16.960938 27.515625 16.964844 27.160156 16.953125 C 26.96875 16.925781 26.792969 16.972656 26.640625 17.09375 C 26.496094 17.261719 26.4375 17.453125 26.457031 17.671875 C 26.476562 19.058594 26.515625 20.324219 26.523438 20.59375 C 25.910156 20.078125 25.34375 19.511719 24.828125 18.894531 C 24.378906 18.347656 23.820312 17.890625 23.328125 17.378906 C 23.050781 17.066406 22.703125 16.921875 22.285156 16.945312 C 22.101562 16.949219 21.917969 16.953125 21.738281 16.953125 C 21.410156 16.957031 21.085938 16.960938 20.757812 16.960938 C 19.921875 16.960938 19.082031 16.957031 18.246094 16.953125 C 17.121094 16.941406 16.371094 16.308594 16.230469 15.261719 C 16.214844 15.144531 16.203125 15.027344 16.203125 14.910156 L 16.203125 14.296875 C 16.199219 12.582031 16.195312 10.863281 16.203125 9.148438 C 16.1875 8.878906 16.226562 8.613281 16.320312 8.359375 C 16.417969 8.105469 16.5625 7.878906 16.75 7.6875 C 16.941406 7.492188 17.164062 7.34375 17.417969 7.246094 C 17.671875 7.148438 17.933594 7.105469 18.207031 7.117188 C 21.550781 7.101562 24.894531 7.101562 28.246094 7.117188 C 28.515625 7.109375 28.777344 7.15625 29.03125 7.257812 C 29.285156 7.359375 29.503906 7.507812 29.695312 7.703125 C 29.882812 7.894531 30.027344 8.121094 30.121094 8.375 C 30.214844 8.632812 30.257812 8.894531 30.238281 9.164062 C 30.25 11.085938 30.25 13.003906 30.238281 14.921875 Z M 28.179688 10.792969 L 18.410156 10.792969 C 18.269531 10.792969 18.144531 10.742188 18.046875 10.640625 C 17.945312 10.539062 17.894531 10.417969 17.894531 10.277344 C 17.894531 10.132812 17.945312 10.011719 18.046875 9.910156 C 18.144531 9.808594 18.269531 9.757812 18.410156 9.757812 L 28.179688 9.757812 C 28.320312 9.757812 28.441406 9.808594 28.542969 9.910156 C 28.644531 10.011719 28.695312 10.132812 28.695312 10.277344 C 28.695312 10.417969 28.644531 10.539062 28.542969 10.640625 C 28.441406 10.742188 28.320312 10.792969 28.179688 10.792969 Z M 24.691406 13.535156 L 18.710938 13.535156 C 18.566406 13.535156 18.445312 13.484375 18.34375 13.382812 C 18.242188 13.28125 18.191406 13.160156 18.191406 13.015625 C 18.191406 12.875 18.242188 12.753906 18.34375 12.652344 C 18.445312 12.550781 18.566406 12.5 18.710938 12.5 L 24.691406 12.5 C 24.832031 12.5 24.953125 12.550781 25.054688 12.652344 C 25.15625 12.753906 25.207031 12.875 25.207031 13.015625 C 25.207031 13.160156 25.15625 13.28125 25.054688 13.382812 C 24.953125 13.484375 24.832031 13.535156 24.691406 13.535156 Z M 18.582031 22.050781 L 8.8125 22.050781 C 8.671875 22.050781 8.546875 22 8.449219 21.898438 C 8.347656 21.796875 8.296875 21.675781 8.296875 21.535156 C 8.296875 21.390625 8.347656 21.269531 8.449219 21.167969 C 8.546875 21.066406 8.671875 21.015625 8.8125 21.015625 L 18.582031 21.015625 C 18.722656 21.015625 18.84375 21.066406 18.945312 21.167969 C 19.046875 21.269531 19.097656 21.390625 19.097656 21.535156 C 19.097656 21.675781 19.046875 21.796875 18.945312 21.898438 C 18.84375 22 18.722656 22.050781 18.582031 22.050781 Z M 8.855469 18.242188 L 14.835938 18.242188 C 14.976562 18.242188 15.097656 18.292969 15.199219 18.394531 C 15.300781 18.492188 15.351562 18.617188 15.351562 18.757812 C 15.351562 18.902344 15.300781 19.023438 15.199219 19.125 C 15.097656 19.226562 14.976562 19.273438 14.835938 19.273438 L 8.855469 19.273438 C 8.710938 19.273438 8.589844 19.226562 8.488281 19.125 C 8.386719 19.023438 8.335938 18.902344 8.335938 18.757812 C 8.335938 18.617188 8.386719 18.492188 8.488281 18.394531 C 8.589844 18.292969 8.710938 18.242188 8.855469 18.242188 Z M 8.855469 18.242188 " fill-opacity="1" fill-rule="nonzero"/></g></svg>