<svg xmlns="http://www.w3.org/2000/svg" xmlns:xlink="http://www.w3.org/1999/xlink" width="100" zoomAndPan="magnify" viewBox="0 0 75 74.999997" height="100" preserveAspectRatio="xMidYMid meet" version="1.0"><defs><clipPath id="edfdc9cf42"><path d="M 18 52 L 59.167969 52 L 59.167969 73.5625 L 18 73.5625 Z M 18 52 " clip-rule="nonzero"/></clipPath></defs><path fill="#f39200" d="M 38.839844 17.480469 L 31.285156 23.710938 C 31.285156 23.71875 31.28125 23.730469 31.277344 23.746094 C 31.273438 23.765625 31.269531 23.777344 31.269531 23.789062 L 31.269531 30.097656 C 31.269531 30.324219 31.355469 30.519531 31.519531 30.6875 C 31.6875 30.851562 31.882812 30.9375 32.113281 30.9375 L 37.160156 30.9375 L 37.160156 25.890625 L 40.523438 25.890625 L 40.523438 30.9375 L 45.570312 30.9375 C 45.796875 30.9375 45.996094 30.855469 46.160156 30.6875 C 46.328125 30.519531 46.410156 30.324219 46.410156 30.097656 L 46.410156 23.789062 C 46.410156 23.753906 46.40625 23.726562 46.398438 23.710938 L 38.839844 17.480469 " fill-opacity="1" fill-rule="nonzero"/><path fill="#f39200" d="M 49.289062 22.289062 L 46.410156 19.898438 L 46.410156 14.535156 C 46.410156 14.414062 46.371094 14.3125 46.292969 14.234375 C 46.214844 14.15625 46.113281 14.117188 45.988281 14.117188 L 43.464844 14.117188 C 43.34375 14.117188 43.242188 14.15625 43.164062 14.234375 C 43.085938 14.3125 43.046875 14.414062 43.046875 14.535156 L 43.046875 17.097656 L 39.839844 14.417969 C 39.558594 14.191406 39.226562 14.078125 38.839844 14.078125 C 38.457031 14.078125 38.121094 14.191406 37.84375 14.417969 L 28.394531 22.289062 C 28.304688 22.359375 28.257812 22.453125 28.25 22.570312 C 28.242188 22.691406 28.269531 22.792969 28.339844 22.882812 L 29.15625 23.851562 C 29.226562 23.933594 29.316406 23.980469 29.433594 24 C 29.539062 24.007812 29.640625 23.976562 29.746094 23.90625 L 38.839844 16.324219 L 47.9375 23.90625 C 48.003906 23.96875 48.097656 24 48.210938 24 L 48.25 24 C 48.363281 23.980469 48.457031 23.933594 48.527344 23.851562 L 49.339844 22.882812 C 49.410156 22.792969 49.441406 22.691406 49.433594 22.570312 C 49.425781 22.453125 49.375 22.359375 49.289062 22.289062 " fill-opacity="1" fill-rule="nonzero"/><g clip-path="url(#edfdc9cf42)"><path fill="#f39200" d="M 47.496094 52.03125 C 47.289062 52.382812 47.089844 52.722656 46.890625 53.070312 C 52.375 54.570312 56.105469 57.566406 56.105469 61.011719 C 56.105469 65.972656 48.378906 69.996094 38.839844 69.996094 C 29.304688 69.996094 21.574219 65.972656 21.574219 61.011719 C 21.574219 57.574219 25.292969 54.582031 30.753906 53.078125 C 30.554688 52.734375 30.351562 52.386719 30.152344 52.042969 C 23.171875 53.832031 18.335938 57.710938 18.335938 62.207031 C 18.335938 68.40625 27.515625 73.433594 38.839844 73.433594 C 50.167969 73.433594 59.34375 68.40625 59.34375 62.207031 C 59.34375 57.703125 54.492188 53.816406 47.496094 52.03125 " fill-opacity="1" fill-rule="nonzero"/></g><path fill="#f39200" d="M 38.839844 37.449219 C 31.136719 37.449219 24.886719 31.203125 24.886719 23.496094 C 24.886719 15.792969 31.136719 9.546875 38.839844 9.546875 C 46.546875 9.546875 52.792969 15.792969 52.792969 23.496094 C 52.792969 31.203125 46.546875 37.449219 38.839844 37.449219 Z M 57.953125 19.433594 C 55.410156 8.109375 43.941406 1.542969 32.839844 5.027344 C 21.128906 8.703125 15.691406 22.269531 21.730469 32.992188 C 26.105469 40.757812 30.644531 48.425781 35.117188 56.136719 C 36.328125 58.226562 37.542969 60.3125 38.8125 62.492188 C 38.949219 62.277344 39.023438 62.171875 39.085938 62.058594 C 44.683594 52.414062 50.304688 42.785156 55.863281 33.117188 C 58.3125 28.851562 59.03125 24.253906 57.953125 19.433594 " fill-opacity="1" fill-rule="nonzero"/><path fill="#f39200" d="M 42.308594 62.734375 C 42.308594 64.257812 40.753906 65.496094 38.839844 65.496094 C 36.925781 65.496094 35.375 64.257812 35.375 62.734375 C 35.375 61.84375 35.90625 61.046875 36.734375 60.542969 C 36.765625 60.597656 36.796875 60.648438 36.824219 60.699219 L 38.78125 64.058594 L 39.625 62.734375 C 39.691406 62.628906 39.742188 62.550781 39.789062 62.472656 C 40.167969 61.824219 40.542969 61.175781 40.921875 60.527344 C 41.765625 61.03125 42.308594 61.832031 42.308594 62.734375 " fill-opacity="1" fill-rule="nonzero"/></svg>