<svg xmlns="http://www.w3.org/2000/svg" xmlns:xlink="http://www.w3.org/1999/xlink" width="50" zoomAndPan="magnify" viewBox="0 0 37.5 37.499999" height="50" preserveAspectRatio="xMidYMid meet" version="1.0"><defs><clipPath id="656f9e6923"><path d="M 14 30 L 23 30 L 23 33.847656 L 14 33.847656 Z M 14 30 " clip-rule="nonzero"/></clipPath><clipPath id="6459641d2c"><path d="M 4.894531 3.503906 L 32.277344 3.503906 L 32.277344 30 L 4.894531 30 Z M 4.894531 3.503906 " clip-rule="nonzero"/></clipPath></defs><g clip-path="url(#656f9e6923)"><path fill="#fd9800" d="M 18.5 32.144531 C 17.417969 32.144531 16.445312 31.503906 16.007812 30.511719 L 14.765625 31.058594 C 15.414062 32.539062 16.878906 33.503906 18.5 33.503906 C 20.144531 33.503906 21.613281 32.527344 22.253906 31.015625 L 21.003906 30.484375 C 20.574219 31.492188 19.59375 32.144531 18.5 32.144531 Z M 18.5 32.144531 " fill-opacity="1" fill-rule="nonzero"/></g><g clip-path="url(#6459641d2c)"><path fill="#fd9800" d="M 31.839844 27.550781 L 28.253906 24.558594 C 28.097656 24.429688 28.007812 24.242188 28.007812 24.039062 L 28.007812 15.839844 C 28.007812 13.214844 26.964844 10.773438 25.0625 8.960938 C 23.945312 7.898438 22.617188 7.144531 21.183594 6.726562 C 21.214844 6.515625 21.226562 6.308594 21.207031 6.085938 C 21.105469 4.925781 20.25 3.941406 19.128906 3.6875 C 18.304688 3.503906 17.453125 3.695312 16.800781 4.214844 C 16.15625 4.734375 15.785156 5.503906 15.785156 6.335938 C 15.785156 6.472656 15.808594 6.597656 15.828125 6.730469 C 11.859375 7.914062 8.992188 11.65625 8.992188 16.089844 L 8.992188 24.035156 C 8.992188 24.238281 8.902344 24.429688 8.746094 24.554688 L 5.160156 27.542969 C 5.003906 27.675781 4.914062 27.867188 4.914062 28.0625 L 4.914062 28.746094 C 4.914062 29.121094 5.21875 29.425781 5.597656 29.425781 L 31.40625 29.425781 C 31.78125 29.425781 32.085938 29.121094 32.085938 28.746094 L 32.085938 28.0625 C 32.078125 27.867188 31.988281 27.675781 31.839844 27.550781 Z M 17.136719 6.335938 C 17.136719 5.917969 17.324219 5.535156 17.644531 5.273438 C 17.972656 5.007812 18.386719 4.914062 18.824219 5.007812 C 19.367188 5.136719 19.796875 5.632812 19.851562 6.199219 C 19.855469 6.277344 19.84375 6.355469 19.839844 6.433594 C 19.246094 6.347656 18.648438 6.320312 18.035156 6.34375 C 17.734375 6.355469 17.4375 6.382812 17.144531 6.433594 C 17.148438 6.394531 17.136719 6.367188 17.136719 6.335938 Z M 6.652344 28.070312 L 9.613281 25.601562 C 10.078125 25.210938 10.347656 24.644531 10.347656 24.035156 L 10.347656 16.089844 C 10.347656 11.589844 13.753906 7.902344 18.105469 7.699219 C 20.363281 7.589844 22.5 8.394531 24.125 9.941406 C 25.75 11.496094 26.648438 13.585938 26.648438 15.839844 L 26.648438 24.035156 C 26.648438 24.636719 26.914062 25.210938 27.382812 25.601562 L 30.339844 28.070312 Z M 6.652344 28.070312 " fill-opacity="1" fill-rule="nonzero"/></g></svg>